<?xml version="1.0" standalone="no"?>
<!DOCTYPE svg PUBLIC "-//W3C//DTD SVG 20010904//EN"
 "http://www.w3.org/TR/2001/REC-SVG-20010904/DTD/svg10.dtd">
<svg version="1.0" xmlns="http://www.w3.org/2000/svg"
 width="403.000000pt" height="218.000000pt" viewBox="0 0 403.000000 218.000000"
 preserveAspectRatio="xMidYMid meet">

<g transform="translate(0.000000,218.000000) scale(0.100000,-0.100000)"
fill="#000000" stroke="none">
<path d="M1493 1726 c-83 -27 -145 -79 -202 -171 -29 -46 -76 -173 -68 -182 2
-2 28 29 57 68 78 105 168 156 257 146 130 -14 222 -211 209 -447 -9 -170 -21
-175 -21 -10 l0 150 -30 26 c-69 58 -182 125 -242 144 -108 33 -123 29 -182
-58 l-23 -33 26 -24 c14 -13 26 -28 26 -34 0 -5 10 -13 22 -17 37 -11 118 -95
158 -164 21 -36 50 -99 64 -140 31 -94 54 -276 38 -292 -13 -13 -16 -87 -4
-104 49 -74 648 -88 782 -19 27 14 30 20 30 63 0 27 -5 53 -12 60 -16 16 7
198 38 292 46 137 134 259 216 301 44 22 106 25 151 5 67 -29 140 -132 169
-239 6 -26 16 -47 20 -47 13 0 9 109 -7 183 -25 121 -88 207 -187 258 -64 33
-176 38 -265 11 -115 -35 -256 -137 -348 -252 l-49 -61 -32 99 c-74 226 -193
385 -345 462 -75 39 -175 49 -246 26z"/>
<path d="M1149 1422 c-109 -69 -168 -200 -169 -371 0 -71 10 -71 29 -1 17 59
57 139 86 170 12 14 26 42 29 63 5 28 15 43 39 57 24 15 35 31 43 65 14 55 7
57 -57 17z"/>
<path d="M1181 1327 c-37 -18 -48 -63 -24 -96 52 -70 158 -9 118 68 -8 16 -25
31 -37 35 -30 8 -29 8 -57 -7z"/>
<path d="M940 940 c-29 -29 -26 -74 6 -99 15 -12 34 -21 44 -21 10 0 29 9 44
21 50 40 21 119 -44 119 -17 0 -39 -9 -50 -20z"/>
<path d="M2920 940 c-29 -29 -26 -74 6 -99 15 -12 34 -21 44 -21 10 0 29 9 44
21 50 40 21 119 -44 119 -17 0 -39 -9 -50 -20z"/>
</g>
</svg>
